M48
METRIC,LZ,000.000
;FILE_FORMAT=3:3
;TYPE=PLATED
;Layer: PTH_Through
;EasyEDA v6.5.54, 2026-05-25 00:17:57
;b051ea1310424490b2c4ebbd247ce2cd,b766e8da3493419aadfb1676c7378051,10
;Gerber Generator version 0.2
;Holesize 1 = 0.702 mm
T01C0.702
;Holesize 2 = 0.900 mm
T02C0.900
;Holesize 3 = 1.000 mm
T03C1.000
;Holesize 4 = 1.200 mm
T04C1.200
;Holesize 5 = 1.300 mm
T05C1.300
;Holesize 6 = 1.800 mm
T06C1.800
%
G05
G90
T01
X083185Y061976
X080645Y061976
X050114Y051943
X047574Y051943
X038100Y041656
X035560Y041656
T02
X014478Y-018923
X014478Y-011303
X041707Y048133
X041707Y055753
X024790Y048133
X024790Y055753
X030429Y055753
X030429Y048133
X055982Y055753
X055982Y048133
X061620Y048133
X061620Y055753
X036068Y048133
X036068Y055753
X034445Y-018923
X034445Y-011303
X054455Y-018923
X054455Y-011303
X074422Y-018923
X074422Y-011303
T03
X038227Y-001651
X040767Y-001651
X043307Y-001651
X045847Y-001651
X048387Y-001651
X050927Y-001651
X053467Y-001651
X038227Y005969
X040767Y005969
X043307Y005969
X045847Y005969
X048387Y005969
X050927Y005969
X053467Y005969
X065532Y072390
X068072Y072390
X070612Y072390
X073152Y072390
X073152Y064770
X070612Y064770
X068072Y064770
X065532Y064770
X087869Y051522G85X087869Y051522
X087869Y049022G85X087869Y049022
X087869Y046522G85X087869Y046522
X066575Y016723
X064035Y016723
X061495Y016723
X058955Y016723
X056415Y016723
X053875Y016723
X051335Y016723
X048795Y016723
X046255Y016723
X043715Y016723
X018315Y016723
X020855Y016723
X023395Y016723
X025935Y016723
X028475Y016723
X031015Y016723
X033555Y016723
X036095Y016723
X038635Y016723
X041175Y016723
X041175Y034503
X038635Y034503
X036095Y034503
X033555Y034503
X031015Y034503
X028475Y034503
X025935Y034503
X023395Y034503
X020855Y034503
X018315Y034503
X043715Y034503
X046255Y034503
X048795Y034503
X051335Y034503
X053875Y034503
X056415Y034503
X058955Y034503
X061495Y034503
X064035Y034503
X066575Y034503
X014478Y-028130
X074543Y-028130
X034445Y-028130
X092075Y-028575
X097663Y-028738
X054456Y-028130
T04
X091477Y005080G85X091483Y005080
X096479Y005080G85X096484Y005080
X090980Y025844
X096980Y025844
X093980Y030544
T05
X097539Y067056G85X097533Y067056
X092539Y062056G85X092533Y062056
X092539Y072056G85X092533Y072056
T06
X094869Y053422G85X094869Y053422
X094869Y044622G85X094869Y044622
M30
