G04 Layer: TopSilkscreenLayer*
G04 EasyEDA v6.5.54, 2026-05-25 00:17:57*
G04 b051ea1310424490b2c4ebbd247ce2cd,b766e8da3493419aadfb1676c7378051,10*
G04 Gerber Generator version 0.2*
G04 Scale: 100 percent, Rotated: No, Reflected: No *
G04 Dimensions in millimeters *
G04 leading zeros omitted , absolute positions ,4 integer and 5 decimal *
%FSLAX45Y45*%
%MOMM*%

%ADD10C,0.1524*%
%ADD11C,0.1270*%
%ADD12C,0.2540*%
%ADD13C,0.1200*%
%ADD14C,0.1999*%
%ADD15C,0.4000*%
%ADD16C,0.0198*%

%LPD*%
G36*
X1112418Y7789519D02*
G01*
X1107744Y7780781D01*
X1107744Y7688072D01*
X1112723Y7684973D01*
X1651254Y7685786D01*
X1657096Y7690612D01*
X1657096Y7779461D01*
X1650085Y7789519D01*
G37*
G36*
X3560876Y7789519D02*
G01*
X3553866Y7779461D01*
X3553866Y7690612D01*
X3560013Y7685531D01*
X4099814Y7686649D01*
X4101084Y7779359D01*
X4098594Y7789519D01*
G37*
G36*
X1648053Y7626756D02*
G01*
X1117904Y7626197D01*
X1109980Y7624165D01*
X1107440Y7614005D01*
X1108862Y7527645D01*
X1112621Y7523886D01*
X1647139Y7522718D01*
X1655978Y7529169D01*
X1657350Y7617459D01*
G37*
G36*
X3560724Y7626756D02*
G01*
X3553561Y7615834D01*
X3554984Y7530236D01*
X3561181Y7522768D01*
X4095546Y7522768D01*
X4100931Y7528204D01*
X4100931Y7621320D01*
X4095546Y7626756D01*
G37*
G36*
X1114856Y7468514D02*
G01*
X1107744Y7461402D01*
X1107744Y7372197D01*
X1113180Y7366762D01*
X1649628Y7366762D01*
X1657400Y7375347D01*
X1655978Y7462062D01*
X1647189Y7468514D01*
G37*
G36*
X1725828Y7468514D02*
G01*
X1720392Y7463078D01*
X1720392Y7372197D01*
X1725828Y7366762D01*
X2262835Y7366762D01*
X2267508Y7375499D01*
X2267508Y7456881D01*
X2263089Y7468514D01*
G37*
G36*
X2945587Y7468514D02*
G01*
X2941218Y7456881D01*
X2941218Y7372197D01*
X2946603Y7366762D01*
X3482848Y7366762D01*
X3488283Y7372197D01*
X3488283Y7463078D01*
X3482848Y7468514D01*
G37*
G36*
X3561181Y7468514D02*
G01*
X3554984Y7461046D01*
X3553612Y7374483D01*
X3562146Y7366762D01*
X4099814Y7367879D01*
X4099814Y7467346D01*
G37*
G36*
X1647545Y7307986D02*
G01*
X1117904Y7307681D01*
X1107744Y7303617D01*
X1107744Y7208418D01*
X1119327Y7203998D01*
X1647189Y7203998D01*
X1655978Y7210399D01*
X1657400Y7300010D01*
G37*
G36*
X2259228Y7307986D02*
G01*
X1728317Y7307834D01*
X1720392Y7303262D01*
X1720392Y7209434D01*
X1725828Y7203998D01*
X2259990Y7203998D01*
X2267508Y7212279D01*
X2267508Y7300518D01*
G37*
G36*
X2948279Y7307986D02*
G01*
X2941218Y7300874D01*
X2941218Y7211110D01*
X2948279Y7203998D01*
X3479546Y7203998D01*
X3488283Y7208672D01*
X3488283Y7303312D01*
X3479546Y7307986D01*
G37*
G36*
X3563924Y7307986D02*
G01*
X3553866Y7300925D01*
X3553866Y7214057D01*
X3560876Y7203998D01*
X4095546Y7203998D01*
X4100931Y7209434D01*
X4100931Y7302550D01*
X4095546Y7307986D01*
G37*
G36*
X2343200Y7147559D02*
G01*
X2333040Y7140448D01*
X2333040Y7045807D01*
X2343251Y7043369D01*
X2879039Y7044588D01*
X2880156Y7139584D01*
X2875788Y7146340D01*
G37*
G36*
X1383690Y7147458D02*
G01*
X1120190Y7147407D01*
X1108862Y7141667D01*
X1108862Y7044588D01*
X1649171Y7043521D01*
X1655978Y7047839D01*
X1657350Y7138009D01*
X1647189Y7147458D01*
G37*
G36*
X1727504Y7147458D02*
G01*
X1720291Y7140295D01*
X1721510Y7044588D01*
X2261362Y7043470D01*
X2267508Y7048550D01*
X2267508Y7138416D01*
X2258466Y7147458D01*
G37*
G36*
X2948228Y7147458D02*
G01*
X2941218Y7137400D01*
X2941218Y7048550D01*
X2947314Y7043470D01*
X3487165Y7044588D01*
X3488385Y7139076D01*
X3480815Y7147458D01*
G37*
G36*
X3562908Y7147458D02*
G01*
X3553866Y7138416D01*
X3553866Y7048550D01*
X3560013Y7043470D01*
X4099814Y7044588D01*
X4101033Y7141260D01*
X4095902Y7147458D01*
G37*
G36*
X2343251Y6984796D02*
G01*
X2333040Y6977634D01*
X2333040Y6888175D01*
X2341321Y6880707D01*
X2868574Y6880707D01*
X2880156Y6885127D01*
X2880106Y6976770D01*
X2875788Y6983577D01*
G37*
G36*
X1643329Y6984695D02*
G01*
X1122426Y6984085D01*
X1112570Y6982155D01*
X1107490Y6976008D01*
X1108862Y6885584D01*
X1112621Y6881825D01*
X1650085Y6881825D01*
X1655978Y6887718D01*
X1657451Y6969353D01*
X1654962Y6979412D01*
G37*
G36*
X1732838Y6984695D02*
G01*
X1721510Y6978903D01*
X1720291Y6887921D01*
X1727504Y6880707D01*
X2260142Y6880707D01*
X2266340Y6888175D01*
X2267712Y6974535D01*
X2261057Y6983577D01*
G37*
G36*
X3562908Y6984695D02*
G01*
X3553561Y6975398D01*
X3554984Y6887108D01*
X3563772Y6880707D01*
X4095902Y6880707D01*
X4101033Y6886956D01*
X4099814Y6981240D01*
X4081729Y6984441D01*
G37*
G36*
X2950667Y6984644D02*
G01*
X2940913Y6976770D01*
X2942336Y6885076D01*
X2949092Y6880758D01*
X3481171Y6880707D01*
X3488283Y6887819D01*
X3488283Y6977380D01*
X3480815Y6983577D01*
G37*
G36*
X1825904Y6799478D02*
G01*
X1814220Y6788251D01*
X1806498Y6766559D01*
X1800199Y6757924D01*
X1795576Y6760768D01*
X1785416Y6789166D01*
X1774393Y6799325D01*
X1770837Y6799325D01*
X1763318Y6790994D01*
X1758950Y6757517D01*
X1758848Y6729780D01*
X1764487Y6725259D01*
X1774647Y6729069D01*
X1774647Y6746646D01*
X1779625Y6760870D01*
X1783334Y6760870D01*
X1790649Y6738823D01*
X1799691Y6730644D01*
X1808429Y6739432D01*
X1814677Y6757517D01*
X1821586Y6758838D01*
X1826666Y6744411D01*
X1826666Y6732219D01*
X1835810Y6723938D01*
X1841093Y6729222D01*
X1840026Y6768795D01*
X1837639Y6784644D01*
X1833016Y6796735D01*
G37*
G36*
X1861464Y6799478D02*
G01*
X1858314Y6796278D01*
X1858314Y6729780D01*
X1864258Y6724853D01*
X1874113Y6731762D01*
X1874113Y6742226D01*
X1880971Y6747967D01*
X1890268Y6739534D01*
X1897735Y6726986D01*
X1912315Y6726986D01*
X1915312Y6731812D01*
X1894484Y6758635D01*
X1894484Y6767677D01*
X1915769Y6795058D01*
X1909165Y6799376D01*
X1898548Y6796836D01*
X1886559Y6782714D01*
X1881581Y6775958D01*
X1874774Y6778599D01*
X1871827Y6797040D01*
X1867712Y6797040D01*
G37*
G36*
X1230934Y6799427D02*
G01*
X1216253Y6785508D01*
X1216253Y6767830D01*
X1228699Y6756298D01*
X1237742Y6753555D01*
X1245666Y6746595D01*
X1245666Y6738772D01*
X1238504Y6736029D01*
X1218793Y6736029D01*
X1215542Y6730796D01*
X1223924Y6724700D01*
X1257147Y6724700D01*
X1268272Y6735825D01*
X1268120Y6750710D01*
X1260297Y6760057D01*
X1234338Y6771944D01*
X1234338Y6780987D01*
X1239977Y6784644D01*
X1260348Y6784644D01*
X1260348Y6798208D01*
G37*
G36*
X1103071Y6799325D02*
G01*
X1100378Y6792264D01*
X1105763Y6780428D01*
X1109726Y6759549D01*
X1127404Y6728307D01*
X1139698Y6724243D01*
X1150670Y6734556D01*
X1150670Y6739890D01*
X1161288Y6759803D01*
X1164640Y6777837D01*
X1168349Y6782358D01*
X1169924Y6795922D01*
X1155649Y6797294D01*
X1141526Y6751828D01*
X1134668Y6751828D01*
X1125931Y6771081D01*
X1125829Y6778091D01*
X1112367Y6799325D01*
G37*
G36*
X1192276Y6799325D02*
G01*
X1186840Y6793890D01*
X1186840Y6729374D01*
X1195324Y6724853D01*
X1202690Y6732981D01*
X1202690Y6792214D01*
X1195578Y6799325D01*
G37*
G36*
X1292555Y6799325D02*
G01*
X1281836Y6796735D01*
X1281836Y6737908D01*
X1295044Y6724700D01*
X1310081Y6724040D01*
X1323644Y6724903D01*
X1335074Y6729374D01*
X1341170Y6739077D01*
X1343456Y6776110D01*
X1340307Y6797040D01*
X1327048Y6797040D01*
X1326540Y6795922D01*
X1323594Y6740855D01*
X1321054Y6738315D01*
X1307795Y6735724D01*
X1298752Y6742430D01*
X1297228Y6793687D01*
G37*
G36*
X1445971Y6799325D02*
G01*
X1443482Y6799173D01*
X1435557Y6794550D01*
X1435557Y6729120D01*
X1447139Y6724700D01*
X1475384Y6724700D01*
X1484172Y6731406D01*
X1477365Y6735927D01*
X1460093Y6736029D01*
X1451356Y6740702D01*
X1451356Y6793890D01*
G37*
G36*
X1669288Y6799325D02*
G01*
X1661566Y6793687D01*
X1661313Y6771487D01*
X1676755Y6771487D01*
X1679803Y6783476D01*
X1692554Y6783476D01*
X1699818Y6775450D01*
X1694281Y6764274D01*
X1681327Y6764274D01*
X1676755Y6771487D01*
X1661313Y6771487D01*
X1660855Y6731355D01*
X1665630Y6726580D01*
X1676298Y6728104D01*
X1678584Y6743953D01*
X1690979Y6745376D01*
X1700580Y6729120D01*
X1709623Y6724294D01*
X1716582Y6731253D01*
X1709013Y6751116D01*
X1715871Y6764274D01*
X1715871Y6784949D01*
X1705711Y6794246D01*
X1695805Y6799325D01*
G37*
G36*
X1635607Y6799275D02*
G01*
X1603959Y6799173D01*
X1596034Y6794550D01*
X1596034Y6729120D01*
X1607667Y6724700D01*
X1638706Y6724700D01*
X1650695Y6729272D01*
X1648815Y6734860D01*
X1624330Y6736080D01*
X1613865Y6738416D01*
X1615287Y6752996D01*
X1635556Y6754418D01*
X1641348Y6759244D01*
X1636217Y6765391D01*
X1621790Y6765391D01*
X1613712Y6771335D01*
X1615287Y6782358D01*
X1641500Y6784695D01*
X1645716Y6791401D01*
X1645818Y6796531D01*
G37*
G36*
X1536141Y6798868D02*
G01*
X1528216Y6796735D01*
X1528216Y6790588D01*
X1535328Y6783476D01*
X1548028Y6783476D01*
X1554022Y6776262D01*
X1547469Y6765950D01*
X1523492Y6730796D01*
X1528470Y6725869D01*
X1574596Y6724396D01*
X1583639Y6731406D01*
X1576832Y6735927D01*
X1556512Y6736080D01*
X1550568Y6739839D01*
X1553565Y6751828D01*
X1577898Y6779056D01*
X1580896Y6790994D01*
X1576374Y6798208D01*
G37*
G36*
X1382268Y6797294D02*
G01*
X1372870Y6786880D01*
X1360932Y6761175D01*
X1360932Y6758482D01*
X1378204Y6758482D01*
X1383487Y6770065D01*
X1394866Y6762648D01*
X1394866Y6754622D01*
X1384706Y6751980D01*
X1378204Y6758482D01*
X1360932Y6758482D01*
X1360932Y6753809D01*
X1351330Y6731508D01*
X1356766Y6725005D01*
X1364335Y6727545D01*
X1373378Y6738061D01*
X1391666Y6740956D01*
X1411071Y6724751D01*
X1420012Y6729526D01*
X1417116Y6743953D01*
X1406855Y6766559D01*
X1395831Y6795922D01*
G37*
G36*
X1498701Y6797040D02*
G01*
X1496466Y6791198D01*
X1497736Y6728104D01*
X1513535Y6728104D01*
X1514906Y6782358D01*
X1512214Y6797040D01*
G37*
G36*
X1954377Y6796887D02*
G01*
X1934057Y6782003D01*
X1934057Y6773621D01*
X1948688Y6769811D01*
X1950974Y6759752D01*
X1952142Y6728104D01*
X1965706Y6728104D01*
X1965706Y6795922D01*
G37*
D10*
X9500870Y7506715D02*
G01*
X9500870Y7423658D01*
X9495536Y7407910D01*
X9490456Y7402829D01*
X9480041Y7397750D01*
X9469627Y7397750D01*
X9459213Y7402829D01*
X9453879Y7407910D01*
X9448800Y7423658D01*
X9448800Y7434071D01*
X9535159Y7485887D02*
G01*
X9545320Y7491221D01*
X9561068Y7506715D01*
X9561068Y7397750D01*
X3416300Y293115D02*
G01*
X3416300Y184150D01*
X3416300Y184150D02*
G01*
X3478529Y184150D01*
X3512820Y272287D02*
G01*
X3523234Y277621D01*
X3538981Y293115D01*
X3538981Y184150D01*
X7467600Y6947915D02*
G01*
X7467600Y6869937D01*
X7472679Y6854444D01*
X7483093Y6844029D01*
X7498841Y6838950D01*
X7509256Y6838950D01*
X7524750Y6844029D01*
X7535163Y6854444D01*
X7540243Y6869937D01*
X7540243Y6947915D01*
X7574534Y6927087D02*
G01*
X7584947Y6932421D01*
X7600695Y6947915D01*
X7600695Y6838950D01*
X10237215Y4902200D02*
G01*
X10128250Y4902200D01*
X10237215Y4902200D02*
G01*
X10237215Y4855463D01*
X10232136Y4839970D01*
X10226802Y4834636D01*
X10216388Y4829555D01*
X10205974Y4829555D01*
X10195559Y4834636D01*
X10190479Y4839970D01*
X10185400Y4855463D01*
X10185400Y4902200D01*
X10185400Y4865878D02*
G01*
X10128250Y4829555D01*
X10237215Y4732781D02*
G01*
X10237215Y4784852D01*
X10190479Y4789931D01*
X10195559Y4784852D01*
X10200893Y4769104D01*
X10200893Y4753610D01*
X10195559Y4738115D01*
X10185400Y4727702D01*
X10169652Y4722368D01*
X10159238Y4722368D01*
X10143743Y4727702D01*
X10133329Y4738115D01*
X10128250Y4753610D01*
X10128250Y4769104D01*
X10133329Y4784852D01*
X10138409Y4789931D01*
X10148824Y4795265D01*
X8180577Y6566408D02*
G01*
X8175243Y6576821D01*
X8164829Y6587236D01*
X8154670Y6592315D01*
X8133841Y6592315D01*
X8123427Y6587236D01*
X8113013Y6576821D01*
X8107679Y6566408D01*
X8102600Y6550660D01*
X8102600Y6524752D01*
X8107679Y6509257D01*
X8113013Y6498844D01*
X8123427Y6488429D01*
X8133841Y6483350D01*
X8154670Y6483350D01*
X8164829Y6488429D01*
X8175243Y6498844D01*
X8180577Y6509257D01*
X8219947Y6566408D02*
G01*
X8219947Y6571487D01*
X8225281Y6581902D01*
X8230361Y6587236D01*
X8240775Y6592315D01*
X8261604Y6592315D01*
X8272018Y6587236D01*
X8277097Y6581902D01*
X8282431Y6571487D01*
X8282431Y6561073D01*
X8277097Y6550660D01*
X8266684Y6535165D01*
X8214868Y6483350D01*
X8287511Y6483350D01*
X4873492Y5550410D02*
G01*
X4868158Y5560824D01*
X4857744Y5571238D01*
X4847584Y5576318D01*
X4826756Y5576318D01*
X4816342Y5571238D01*
X4805928Y5560824D01*
X4800594Y5550410D01*
X4795514Y5534662D01*
X4795514Y5508754D01*
X4800594Y5493260D01*
X4805928Y5482846D01*
X4816342Y5472432D01*
X4826756Y5467352D01*
X4847584Y5467352D01*
X4857744Y5472432D01*
X4868158Y5482846D01*
X4873492Y5493260D01*
X4918196Y5576318D02*
G01*
X4975346Y5576318D01*
X4944104Y5534662D01*
X4959598Y5534662D01*
X4970012Y5529582D01*
X4975346Y5524502D01*
X4980426Y5508754D01*
X4980426Y5498340D01*
X4975346Y5482846D01*
X4964932Y5472432D01*
X4949184Y5467352D01*
X4933690Y5467352D01*
X4918196Y5472432D01*
X4912862Y5477512D01*
X4907782Y5487926D01*
X3684777Y4547107D02*
G01*
X3679443Y4557521D01*
X3669029Y4567936D01*
X3658870Y4573015D01*
X3638041Y4573015D01*
X3627627Y4567936D01*
X3617213Y4557521D01*
X3611879Y4547107D01*
X3606800Y4531360D01*
X3606800Y4505452D01*
X3611879Y4489957D01*
X3617213Y4479544D01*
X3627627Y4469129D01*
X3638041Y4464050D01*
X3658870Y4464050D01*
X3669029Y4469129D01*
X3679443Y4479544D01*
X3684777Y4489957D01*
X3770884Y4573015D02*
G01*
X3719068Y4500371D01*
X3797045Y4500371D01*
X3770884Y4573015D02*
G01*
X3770884Y4464050D01*
X1230878Y-1511300D02*
G01*
X1339844Y-1511300D01*
X1230878Y-1511300D02*
G01*
X1230878Y-1464563D01*
X1235958Y-1449070D01*
X1241292Y-1443736D01*
X1251706Y-1438655D01*
X1262120Y-1438655D01*
X1272534Y-1443736D01*
X1277614Y-1449070D01*
X1282694Y-1464563D01*
X1282694Y-1511300D01*
X1282694Y-1474978D02*
G01*
X1339844Y-1438655D01*
X1251706Y-1404365D02*
G01*
X1246372Y-1393952D01*
X1230878Y-1378204D01*
X1339844Y-1378204D01*
X3953763Y5194300D02*
G01*
X4062729Y5194300D01*
X3953763Y5194300D02*
G01*
X3953763Y5241036D01*
X3958843Y5256529D01*
X3964177Y5261863D01*
X3974591Y5266944D01*
X3985006Y5266944D01*
X3995420Y5261863D01*
X4000500Y5256529D01*
X4005579Y5241036D01*
X4005579Y5194300D01*
X4005579Y5230621D02*
G01*
X4062729Y5266944D01*
X3974591Y5301234D02*
G01*
X3969258Y5311647D01*
X3953763Y5327395D01*
X4062729Y5327395D01*
X3953763Y5392673D02*
G01*
X3958843Y5377179D01*
X3974591Y5366765D01*
X4000500Y5361686D01*
X4015993Y5361686D01*
X4042156Y5366765D01*
X4057650Y5377179D01*
X4062729Y5392673D01*
X4062729Y5403087D01*
X4057650Y5418836D01*
X4042156Y5429250D01*
X4015993Y5434329D01*
X4000500Y5434329D01*
X3974591Y5429250D01*
X3958843Y5418836D01*
X3953763Y5403087D01*
X3953763Y5392673D01*
X2262126Y5194300D02*
G01*
X2371092Y5194300D01*
X2262126Y5194300D02*
G01*
X2262126Y5241036D01*
X2267206Y5256529D01*
X2272540Y5261863D01*
X2282954Y5266944D01*
X2293368Y5266944D01*
X2303782Y5261863D01*
X2308862Y5256529D01*
X2313942Y5241036D01*
X2313942Y5194300D01*
X2313942Y5230621D02*
G01*
X2371092Y5266944D01*
X2282954Y5301234D02*
G01*
X2277620Y5311647D01*
X2262126Y5327395D01*
X2371092Y5327395D01*
X2282954Y5361686D02*
G01*
X2277620Y5372100D01*
X2262126Y5387594D01*
X2371092Y5387594D01*
X2792986Y5181521D02*
G01*
X2901952Y5181521D01*
X2792986Y5181521D02*
G01*
X2792986Y5228257D01*
X2798066Y5244005D01*
X2803400Y5249085D01*
X2813814Y5254419D01*
X2824228Y5254419D01*
X2834642Y5249085D01*
X2839722Y5244005D01*
X2844802Y5228257D01*
X2844802Y5181521D01*
X2844802Y5217843D02*
G01*
X2901952Y5254419D01*
X2813814Y5288709D02*
G01*
X2808480Y5299123D01*
X2792986Y5314617D01*
X2901952Y5314617D01*
X2818894Y5353987D02*
G01*
X2813814Y5353987D01*
X2803400Y5359321D01*
X2798066Y5364401D01*
X2792986Y5374815D01*
X2792986Y5395643D01*
X2798066Y5406057D01*
X2803400Y5411137D01*
X2813814Y5416471D01*
X2824228Y5416471D01*
X2834642Y5411137D01*
X2850136Y5400723D01*
X2901952Y5348907D01*
X2901952Y5421551D01*
X5371084Y5181600D02*
G01*
X5480050Y5181600D01*
X5371084Y5181600D02*
G01*
X5371084Y5228336D01*
X5376163Y5243829D01*
X5381497Y5249163D01*
X5391911Y5254244D01*
X5402325Y5254244D01*
X5412740Y5249163D01*
X5417820Y5243829D01*
X5422900Y5228336D01*
X5422900Y5181600D01*
X5422900Y5217921D02*
G01*
X5480050Y5254244D01*
X5391911Y5288534D02*
G01*
X5386577Y5298947D01*
X5371084Y5314695D01*
X5480050Y5314695D01*
X5371084Y5400802D02*
G01*
X5443727Y5348986D01*
X5443727Y5426710D01*
X5371084Y5400802D02*
G01*
X5480050Y5400802D01*
X5945126Y5194300D02*
G01*
X6054092Y5194300D01*
X5945126Y5194300D02*
G01*
X5945126Y5241036D01*
X5950206Y5256529D01*
X5955540Y5261863D01*
X5965954Y5266944D01*
X5976368Y5266944D01*
X5986782Y5261863D01*
X5991862Y5256529D01*
X5996942Y5241036D01*
X5996942Y5194300D01*
X5996942Y5230621D02*
G01*
X6054092Y5266944D01*
X5965954Y5301234D02*
G01*
X5960620Y5311647D01*
X5945126Y5327395D01*
X6054092Y5327395D01*
X5945126Y5423915D02*
G01*
X5945126Y5372100D01*
X5991862Y5366765D01*
X5986782Y5372100D01*
X5981448Y5387594D01*
X5981448Y5403087D01*
X5986782Y5418836D01*
X5996942Y5429250D01*
X6012690Y5434329D01*
X6023104Y5434329D01*
X6038598Y5429250D01*
X6049012Y5418836D01*
X6054092Y5403087D01*
X6054092Y5387594D01*
X6049012Y5372100D01*
X6043932Y5366765D01*
X6033518Y5361686D01*
X9471850Y726947D02*
G01*
X9466770Y737362D01*
X9456356Y747776D01*
X9445942Y752855D01*
X9425114Y752855D01*
X9414700Y747776D01*
X9404286Y737362D01*
X9399206Y726947D01*
X9394126Y711200D01*
X9394126Y685292D01*
X9399206Y669797D01*
X9404286Y659384D01*
X9414700Y648970D01*
X9425114Y643889D01*
X9445942Y643889D01*
X9456356Y648970D01*
X9466770Y659384D01*
X9471850Y669797D01*
X9506140Y732028D02*
G01*
X9516554Y737362D01*
X9532302Y752855D01*
X9532302Y643889D01*
X3389884Y5194300D02*
G01*
X3498850Y5194300D01*
X3389884Y5194300D02*
G01*
X3389884Y5241036D01*
X3394963Y5256529D01*
X3400297Y5261863D01*
X3410711Y5266944D01*
X3421125Y5266944D01*
X3431540Y5261863D01*
X3436620Y5256529D01*
X3441700Y5241036D01*
X3441700Y5194300D01*
X3441700Y5230621D02*
G01*
X3498850Y5266944D01*
X3410711Y5301234D02*
G01*
X3405377Y5311647D01*
X3389884Y5327395D01*
X3498850Y5327395D01*
X3389884Y5372100D02*
G01*
X3389884Y5429250D01*
X3431540Y5398007D01*
X3431540Y5413502D01*
X3436620Y5423915D01*
X3441700Y5429250D01*
X3457447Y5434329D01*
X3467861Y5434329D01*
X3483356Y5429250D01*
X3493770Y5418836D01*
X3498850Y5403087D01*
X3498850Y5387594D01*
X3493770Y5372100D01*
X3488690Y5366765D01*
X3478275Y5361686D01*
X8953500Y3226815D02*
G01*
X8953500Y3117850D01*
X8953500Y3226815D02*
G01*
X8989822Y3226815D01*
X9005570Y3221736D01*
X9015729Y3211321D01*
X9021063Y3200907D01*
X9026143Y3185160D01*
X9026143Y3159252D01*
X9021063Y3143757D01*
X9015729Y3133344D01*
X9005570Y3122929D01*
X8989822Y3117850D01*
X8953500Y3117850D01*
X9138411Y3200907D02*
G01*
X9133331Y3211321D01*
X9122918Y3221736D01*
X9112504Y3226815D01*
X9091675Y3226815D01*
X9081261Y3221736D01*
X9070847Y3211321D01*
X9065768Y3200907D01*
X9060434Y3185160D01*
X9060434Y3159252D01*
X9065768Y3143757D01*
X9070847Y3133344D01*
X9081261Y3122929D01*
X9091675Y3117850D01*
X9112504Y3117850D01*
X9122918Y3122929D01*
X9133331Y3133344D01*
X9138411Y3143757D01*
X9172702Y3205987D02*
G01*
X9183115Y3211321D01*
X9198609Y3226815D01*
X9198609Y3117850D01*
X1421384Y2552700D02*
G01*
X1499362Y2552700D01*
X1514855Y2557779D01*
X1525270Y2568194D01*
X1530350Y2583942D01*
X1530350Y2594355D01*
X1525270Y2609850D01*
X1514855Y2620263D01*
X1499362Y2625344D01*
X1421384Y2625344D01*
X1447292Y2664968D02*
G01*
X1442212Y2664968D01*
X1431797Y2670047D01*
X1426463Y2675381D01*
X1421384Y2685795D01*
X1421384Y2706370D01*
X1426463Y2716784D01*
X1431797Y2722118D01*
X1442212Y2727197D01*
X1452626Y2727197D01*
X1463039Y2722118D01*
X1478534Y2711704D01*
X1530350Y2659634D01*
X1530350Y2732531D01*
X3227542Y-1511300D02*
G01*
X3336508Y-1511300D01*
X3227542Y-1511300D02*
G01*
X3227542Y-1464563D01*
X3232622Y-1449070D01*
X3237956Y-1443736D01*
X3248370Y-1438655D01*
X3258784Y-1438655D01*
X3269198Y-1443736D01*
X3274278Y-1449070D01*
X3279358Y-1464563D01*
X3279358Y-1511300D01*
X3279358Y-1474978D02*
G01*
X3336508Y-1438655D01*
X3253450Y-1399031D02*
G01*
X3248370Y-1399031D01*
X3237956Y-1393952D01*
X3232622Y-1388618D01*
X3227542Y-1378204D01*
X3227542Y-1357629D01*
X3232622Y-1347215D01*
X3237956Y-1341881D01*
X3248370Y-1336802D01*
X3258784Y-1336802D01*
X3269198Y-1341881D01*
X3284692Y-1352295D01*
X3336508Y-1404365D01*
X3336508Y-1331468D01*
X5228625Y-1511300D02*
G01*
X5337591Y-1511300D01*
X5228625Y-1511300D02*
G01*
X5228625Y-1464563D01*
X5233705Y-1449070D01*
X5239039Y-1443736D01*
X5249453Y-1438655D01*
X5259867Y-1438655D01*
X5270281Y-1443736D01*
X5275361Y-1449070D01*
X5280441Y-1464563D01*
X5280441Y-1511300D01*
X5280441Y-1474978D02*
G01*
X5337591Y-1438655D01*
X5228625Y-1393952D02*
G01*
X5228625Y-1336802D01*
X5270281Y-1367789D01*
X5270281Y-1352295D01*
X5275361Y-1341881D01*
X5280441Y-1336802D01*
X5296189Y-1331468D01*
X5306603Y-1331468D01*
X5322097Y-1336802D01*
X5332511Y-1347215D01*
X5337591Y-1362710D01*
X5337591Y-1378204D01*
X5332511Y-1393952D01*
X5327431Y-1399031D01*
X5317017Y-1404365D01*
X7225284Y-1511300D02*
G01*
X7334250Y-1511300D01*
X7225284Y-1511300D02*
G01*
X7225284Y-1464563D01*
X7230363Y-1449070D01*
X7235697Y-1443736D01*
X7246111Y-1438655D01*
X7256525Y-1438655D01*
X7266940Y-1443736D01*
X7272020Y-1449070D01*
X7277100Y-1464563D01*
X7277100Y-1511300D01*
X7277100Y-1474978D02*
G01*
X7334250Y-1438655D01*
X7225284Y-1352295D02*
G01*
X7297927Y-1404365D01*
X7297927Y-1326387D01*
X7225284Y-1352295D02*
G01*
X7334250Y-1352295D01*
D11*
X9124111Y6105601D02*
G01*
X8893606Y6105601D01*
X8893606Y7305598D01*
X9124111Y7305598D01*
X9865588Y7305598D02*
G01*
X10053599Y7305598D01*
X10053599Y6105601D01*
X9865588Y6105601D01*
X9641611Y6105601D02*
G01*
X9383090Y6105601D01*
X9641611Y7305598D02*
G01*
X9383090Y7305598D01*
X8893606Y6105601D02*
G01*
X8893606Y7305598D01*
X10053599Y7305598D02*
G01*
X10053599Y6105601D01*
X10053599Y7045604D02*
G01*
X10053599Y6365595D01*
D12*
X5537200Y533400D02*
G01*
X5537200Y-101600D01*
X5426141Y533400D02*
G01*
X5537200Y533400D01*
X5172141Y533400D02*
G01*
X5267258Y533400D01*
X4918141Y533400D02*
G01*
X5013258Y533400D01*
X4664141Y533400D02*
G01*
X4759258Y533400D01*
X4410141Y533400D02*
G01*
X4505258Y533400D01*
X4156141Y533400D02*
G01*
X4251258Y533400D01*
X3902141Y533400D02*
G01*
X3997258Y533400D01*
X3632200Y533400D02*
G01*
X3743258Y533400D01*
X3632200Y533400D02*
G01*
X3632200Y304800D01*
X3724584Y-101600D02*
G01*
X3632200Y-101600D01*
X3632200Y127000D01*
X3997258Y-101600D02*
G01*
X3920815Y-101600D01*
X4251258Y-101600D02*
G01*
X4156141Y-101600D01*
X4505258Y-101600D02*
G01*
X4410141Y-101600D01*
X4759258Y-101600D02*
G01*
X4664141Y-101600D01*
X5013258Y-101600D02*
G01*
X4918141Y-101600D01*
X5267258Y-101600D02*
G01*
X5172141Y-101600D01*
X5537200Y-101600D02*
G01*
X5426141Y-101600D01*
X6454198Y6527805D02*
G01*
X6454198Y6604005D01*
X6454198Y7112005D02*
G01*
X6454198Y7188205D01*
X6454198Y6985005D02*
G01*
X6454198Y7112005D01*
X7404900Y7188205D02*
G01*
X7416794Y7188205D01*
X7416794Y6527805D01*
X7404900Y6527805D01*
X6717494Y6527805D02*
G01*
X6656318Y6527805D01*
X6971494Y6527805D02*
G01*
X6896900Y6527805D01*
X7225494Y6527805D02*
G01*
X7150900Y6527805D01*
X7150900Y7188205D02*
G01*
X7225494Y7188205D01*
X6896900Y7188205D02*
G01*
X6971494Y7188205D01*
X6642900Y7188205D02*
G01*
X6717494Y7188205D01*
X6454198Y6604005D02*
G01*
X6454198Y6731005D01*
D11*
X9766909Y5402198D02*
G01*
X10036911Y5402198D01*
X10036911Y4402201D01*
X9766909Y4402201D01*
X9206890Y5402198D02*
G01*
X8836888Y5402198D01*
X8836888Y5282209D01*
X9206890Y4402201D02*
G01*
X8836888Y4402201D01*
X8836888Y4522190D01*
D12*
X8115300Y6337300D02*
G01*
X8013700Y6337300D01*
X4808214Y5334002D02*
G01*
X4706614Y5334002D01*
X3606800Y4305300D02*
G01*
X3505200Y4305300D01*
X1447794Y-1765300D02*
G01*
X1447794Y-1790700D01*
X1447794Y-1257300D02*
G01*
X1447794Y-1231900D01*
X1447794Y-1765300D02*
G01*
X1371594Y-1765300D01*
X1523994Y-1765300D02*
G01*
X1447794Y-1765300D01*
X1523994Y-1257300D02*
G01*
X1523994Y-1765300D01*
X1447794Y-1257300D02*
G01*
X1523994Y-1257300D01*
X1371594Y-1257300D02*
G01*
X1447794Y-1257300D01*
X1371594Y-1765300D02*
G01*
X1371594Y-1257300D01*
X4170679Y4940300D02*
G01*
X4170679Y4914900D01*
X4170679Y5448300D02*
G01*
X4170679Y5473700D01*
X4170679Y4940300D02*
G01*
X4094479Y4940300D01*
X4246879Y4940300D02*
G01*
X4170679Y4940300D01*
X4246879Y5448300D02*
G01*
X4246879Y4940300D01*
X4170679Y5448300D02*
G01*
X4246879Y5448300D01*
X4094479Y5448300D02*
G01*
X4170679Y5448300D01*
X4094479Y4940300D02*
G01*
X4094479Y5448300D01*
X2479042Y4940300D02*
G01*
X2479042Y4914900D01*
X2479042Y5448300D02*
G01*
X2479042Y5473700D01*
X2479042Y4940300D02*
G01*
X2402842Y4940300D01*
X2555242Y4940300D02*
G01*
X2479042Y4940300D01*
X2555242Y5448300D02*
G01*
X2555242Y4940300D01*
X2479042Y5448300D02*
G01*
X2555242Y5448300D01*
X2402842Y5448300D02*
G01*
X2479042Y5448300D01*
X2402842Y4940300D02*
G01*
X2402842Y5448300D01*
X3042922Y5448300D02*
G01*
X3042922Y5473700D01*
X3042922Y4940300D02*
G01*
X3042922Y4914900D01*
X3042922Y5448300D02*
G01*
X3119122Y5448300D01*
X2966722Y5448300D02*
G01*
X3042922Y5448300D01*
X2966722Y4940300D02*
G01*
X2966722Y5448300D01*
X3042922Y4940300D02*
G01*
X2966722Y4940300D01*
X3119122Y4940300D02*
G01*
X3042922Y4940300D01*
X3119122Y5448300D02*
G01*
X3119122Y4940300D01*
X5598162Y5448305D02*
G01*
X5598162Y5473705D01*
X5598162Y4940305D02*
G01*
X5598162Y4914905D01*
X5598162Y5448305D02*
G01*
X5674362Y5448305D01*
X5521962Y5448305D02*
G01*
X5598162Y5448305D01*
X5521962Y4940305D02*
G01*
X5521962Y5448305D01*
X5598162Y4940305D02*
G01*
X5521962Y4940305D01*
X5674362Y4940305D02*
G01*
X5598162Y4940305D01*
X5674362Y5448305D02*
G01*
X5674362Y4940305D01*
X6162042Y4940300D02*
G01*
X6162042Y4914900D01*
X6162042Y5448300D02*
G01*
X6162042Y5473700D01*
X6162042Y4940300D02*
G01*
X6085842Y4940300D01*
X6238242Y4940300D02*
G01*
X6162042Y4940300D01*
X6238242Y5448300D02*
G01*
X6238242Y4940300D01*
X6162042Y5448300D02*
G01*
X6238242Y5448300D01*
X6085842Y5448300D02*
G01*
X6162042Y5448300D01*
X6085842Y4940300D02*
G01*
X6085842Y5448300D01*
D13*
X9397936Y1137920D02*
G01*
X9397936Y-121920D01*
X9402000Y1137920D02*
G01*
X9402000Y-121920D01*
X9406064Y1137920D02*
G01*
X9406064Y-121920D01*
X9409874Y1137920D02*
G01*
X9409874Y-121920D01*
X9413938Y1137920D02*
G01*
X9413938Y-121920D01*
X9418002Y1137665D02*
G01*
X9418002Y-121665D01*
X9422066Y1137665D02*
G01*
X9422066Y-121665D01*
X9425876Y1137412D02*
G01*
X9425876Y-121412D01*
X9429940Y1137157D02*
G01*
X9429940Y-121157D01*
X9434004Y1136904D02*
G01*
X9434004Y-120904D01*
X9438068Y1136904D02*
G01*
X9438068Y-120904D01*
X9441878Y1136395D02*
G01*
X9441878Y-120395D01*
X9445942Y1136142D02*
G01*
X9445942Y-120142D01*
X9450006Y1135887D02*
G01*
X9450006Y-119887D01*
X9454070Y1135634D02*
G01*
X9454070Y-119634D01*
X9457880Y1135126D02*
G01*
X9457880Y-119126D01*
X9461944Y1134871D02*
G01*
X9461944Y-118871D01*
X9466008Y1134363D02*
G01*
X9466008Y-118363D01*
X9470072Y1133855D02*
G01*
X9470072Y-117855D01*
X9474136Y1133602D02*
G01*
X9474136Y-117602D01*
X9478200Y1133094D02*
G01*
X9478200Y-117094D01*
X9482010Y1132586D02*
G01*
X9482010Y-116586D01*
X9486074Y1131823D02*
G01*
X9486074Y-115823D01*
X9490138Y1131315D02*
G01*
X9490138Y-115315D01*
X9494202Y1130807D02*
G01*
X9494202Y-114807D01*
X9498012Y1130045D02*
G01*
X9498012Y-114045D01*
X9502076Y1129537D02*
G01*
X9502076Y-113537D01*
X9506140Y1128776D02*
G01*
X9506140Y-112776D01*
X9510204Y1128013D02*
G01*
X9510204Y645921D01*
X9510204Y370078D02*
G01*
X9510204Y-112013D01*
X9514014Y1127252D02*
G01*
X9514014Y645921D01*
X9514014Y370078D02*
G01*
X9514014Y-111252D01*
X9518078Y1126489D02*
G01*
X9518078Y645921D01*
X9518078Y370078D02*
G01*
X9518078Y-110489D01*
X9522142Y1125728D02*
G01*
X9522142Y645921D01*
X9522142Y370078D02*
G01*
X9522142Y-109728D01*
X9526206Y1124965D02*
G01*
X9526206Y645921D01*
X9526206Y370078D02*
G01*
X9526206Y-108965D01*
X9530016Y1124204D02*
G01*
X9530016Y645921D01*
X9530016Y370078D02*
G01*
X9530016Y-108204D01*
X9534080Y1123187D02*
G01*
X9534080Y645921D01*
X9534080Y370078D02*
G01*
X9534080Y-107187D01*
X9538144Y1122426D02*
G01*
X9538144Y645921D01*
X9538144Y370078D02*
G01*
X9538144Y-106426D01*
X9542208Y1121410D02*
G01*
X9542208Y645921D01*
X9542208Y370078D02*
G01*
X9542208Y-105410D01*
X9546018Y1120394D02*
G01*
X9546018Y645921D01*
X9546018Y370078D02*
G01*
X9546018Y-104394D01*
X9550082Y1119631D02*
G01*
X9550082Y645921D01*
X9550082Y370078D02*
G01*
X9550082Y-103631D01*
X9554146Y1118615D02*
G01*
X9554146Y645921D01*
X9554146Y370078D02*
G01*
X9554146Y-102615D01*
X9558210Y1117600D02*
G01*
X9558210Y645921D01*
X9558210Y370078D02*
G01*
X9558210Y-101600D01*
X9562020Y1116584D02*
G01*
X9562020Y645921D01*
X9562020Y370078D02*
G01*
X9562020Y-100584D01*
X9566084Y1115313D02*
G01*
X9566084Y645921D01*
X9566084Y370078D02*
G01*
X9566084Y-99313D01*
X9570148Y1114297D02*
G01*
X9570148Y645921D01*
X9570148Y370078D02*
G01*
X9570148Y-98297D01*
X9574212Y1113028D02*
G01*
X9574212Y645921D01*
X9574212Y370078D02*
G01*
X9574212Y-97028D01*
X9578022Y1112012D02*
G01*
X9578022Y645921D01*
X9578022Y370078D02*
G01*
X9578022Y-96012D01*
X9582086Y1110742D02*
G01*
X9582086Y645921D01*
X9582086Y370078D02*
G01*
X9582086Y-94742D01*
X9586150Y1109471D02*
G01*
X9586150Y645921D01*
X9586150Y370078D02*
G01*
X9586150Y-93471D01*
X9590214Y1108202D02*
G01*
X9590214Y645921D01*
X9590214Y370078D02*
G01*
X9590214Y-92202D01*
X9594024Y1106931D02*
G01*
X9594024Y645921D01*
X9594024Y370078D02*
G01*
X9594024Y-90931D01*
X9598088Y1105662D02*
G01*
X9598088Y645921D01*
X9598088Y370078D02*
G01*
X9598088Y-89662D01*
X9602152Y1104392D02*
G01*
X9602152Y645921D01*
X9602152Y370078D02*
G01*
X9602152Y-88392D01*
X9606216Y1103121D02*
G01*
X9606216Y645921D01*
X9606216Y370078D02*
G01*
X9606216Y-87121D01*
X9610026Y1101597D02*
G01*
X9610026Y645921D01*
X9610026Y370078D02*
G01*
X9610026Y-85597D01*
X9614090Y1100073D02*
G01*
X9614090Y645921D01*
X9614090Y370078D02*
G01*
X9614090Y-84073D01*
X9618154Y1098804D02*
G01*
X9618154Y645921D01*
X9618154Y370078D02*
G01*
X9618154Y-82804D01*
X9622218Y1097279D02*
G01*
X9622218Y645921D01*
X9622218Y370078D02*
G01*
X9622218Y-81279D01*
X9626028Y1095502D02*
G01*
X9626028Y645921D01*
X9626028Y370078D02*
G01*
X9626028Y-79502D01*
X9630092Y1093978D02*
G01*
X9630092Y645921D01*
X9630092Y370078D02*
G01*
X9630092Y-77978D01*
X9634156Y1092454D02*
G01*
X9634156Y645921D01*
X9634156Y370078D02*
G01*
X9634156Y-76454D01*
X9638220Y1090929D02*
G01*
X9638220Y645921D01*
X9638220Y370078D02*
G01*
X9638220Y-74929D01*
X9642030Y1089152D02*
G01*
X9642030Y645921D01*
X9642030Y370078D02*
G01*
X9642030Y-73152D01*
X9646094Y1087373D02*
G01*
X9646094Y645921D01*
X9646094Y370078D02*
G01*
X9646094Y-71373D01*
X9650158Y1085850D02*
G01*
X9650158Y645921D01*
X9650158Y370078D02*
G01*
X9650158Y-69850D01*
X9654222Y1084071D02*
G01*
X9654222Y645921D01*
X9654222Y370078D02*
G01*
X9654222Y-68071D01*
X9658032Y1082294D02*
G01*
X9658032Y645921D01*
X9658032Y370078D02*
G01*
X9658032Y-66294D01*
X9662096Y1080515D02*
G01*
X9662096Y645921D01*
X9662096Y370078D02*
G01*
X9662096Y-64515D01*
X9666160Y1078484D02*
G01*
X9666160Y645921D01*
X9666160Y370078D02*
G01*
X9666160Y-62484D01*
X9670224Y1076705D02*
G01*
X9670224Y645921D01*
X9670224Y370078D02*
G01*
X9670224Y-60705D01*
X9674034Y1074673D02*
G01*
X9674034Y645921D01*
X9674034Y370078D02*
G01*
X9674034Y-58673D01*
X9678098Y1072895D02*
G01*
X9678098Y645921D01*
X9678098Y370078D02*
G01*
X9678098Y-56895D01*
X9682162Y1070863D02*
G01*
X9682162Y645921D01*
X9682162Y370078D02*
G01*
X9682162Y-54863D01*
X9686226Y1068831D02*
G01*
X9686226Y645921D01*
X9686226Y370078D02*
G01*
X9686226Y-52831D01*
X9690036Y1066800D02*
G01*
X9690036Y645921D01*
X9690036Y370078D02*
G01*
X9690036Y-50800D01*
X9694100Y1064768D02*
G01*
X9694100Y645921D01*
X9694100Y370078D02*
G01*
X9694100Y-48768D01*
X9698164Y1062481D02*
G01*
X9698164Y645921D01*
X9698164Y370078D02*
G01*
X9698164Y-46481D01*
X9701974Y1060450D02*
G01*
X9701974Y645921D01*
X9701974Y370078D02*
G01*
X9701974Y-44450D01*
X9706038Y1058163D02*
G01*
X9706038Y645921D01*
X9706038Y370078D02*
G01*
X9706038Y-42163D01*
X9710102Y1055878D02*
G01*
X9710102Y645921D01*
X9710102Y370078D02*
G01*
X9710102Y-39878D01*
X9714166Y1053592D02*
G01*
X9714166Y645921D01*
X9714166Y370078D02*
G01*
X9714166Y-37592D01*
X9717976Y1051305D02*
G01*
X9717976Y645921D01*
X9717976Y370078D02*
G01*
X9717976Y-35305D01*
X9722040Y1049020D02*
G01*
X9722040Y645921D01*
X9722040Y370078D02*
G01*
X9722040Y-33020D01*
X9726104Y1046479D02*
G01*
X9726104Y645921D01*
X9726104Y370078D02*
G01*
X9726104Y-30479D01*
X9730168Y1044194D02*
G01*
X9730168Y645921D01*
X9730168Y370078D02*
G01*
X9730168Y-28194D01*
X9733978Y1041654D02*
G01*
X9733978Y645921D01*
X9733978Y370078D02*
G01*
X9733978Y-25654D01*
X9738042Y1039113D02*
G01*
X9738042Y645921D01*
X9738042Y370078D02*
G01*
X9738042Y-23113D01*
X9742106Y1036573D02*
G01*
X9742106Y645921D01*
X9742106Y370078D02*
G01*
X9742106Y-20573D01*
X9746170Y1034034D02*
G01*
X9746170Y645921D01*
X9746170Y370078D02*
G01*
X9746170Y-18034D01*
X9749980Y1031494D02*
G01*
X9749980Y645921D01*
X9749980Y370078D02*
G01*
X9749980Y-15494D01*
X9754044Y1028700D02*
G01*
X9754044Y645921D01*
X9754044Y370078D02*
G01*
X9754044Y-12700D01*
X9758108Y1025905D02*
G01*
X9758108Y645921D01*
X9758108Y370078D02*
G01*
X9758108Y-9905D01*
X9762172Y1023112D02*
G01*
X9762172Y645921D01*
X9762172Y370078D02*
G01*
X9762172Y-7112D01*
X9765982Y1020318D02*
G01*
X9765982Y645921D01*
X9765982Y370078D02*
G01*
X9765982Y-4318D01*
X9770046Y1017523D02*
G01*
X9770046Y645921D01*
X9770046Y370078D02*
G01*
X9770046Y-1523D01*
X9774110Y1014476D02*
G01*
X9774110Y645921D01*
X9774110Y370078D02*
G01*
X9774110Y1523D01*
X9778174Y1011428D02*
G01*
X9778174Y645921D01*
X9778174Y370078D02*
G01*
X9778174Y4571D01*
X9781984Y1008379D02*
G01*
X9781984Y645921D01*
X9781984Y370078D02*
G01*
X9781984Y7620D01*
X9786048Y1005586D02*
G01*
X9786048Y10413D01*
X9790112Y1002284D02*
G01*
X9790112Y13715D01*
X9794176Y999236D02*
G01*
X9794176Y16763D01*
X9797986Y995934D02*
G01*
X9797986Y20065D01*
X9802050Y992631D02*
G01*
X9802050Y23368D01*
X9806114Y989329D02*
G01*
X9806114Y26670D01*
X9810178Y985773D02*
G01*
X9810178Y30226D01*
X9813988Y982471D02*
G01*
X9813988Y33528D01*
X9818052Y978915D02*
G01*
X9818052Y37084D01*
X9822116Y975360D02*
G01*
X9822116Y40639D01*
X9826180Y971804D02*
G01*
X9826180Y44195D01*
X9829990Y967994D02*
G01*
X9829990Y48005D01*
X9834054Y964184D02*
G01*
X9834054Y51815D01*
X9838118Y960373D02*
G01*
X9838118Y55626D01*
X9842182Y956563D02*
G01*
X9842182Y59436D01*
X9845992Y952754D02*
G01*
X9845992Y63245D01*
X9850056Y948689D02*
G01*
X9850056Y67310D01*
X9854120Y944371D02*
G01*
X9854120Y71373D01*
X9858184Y940307D02*
G01*
X9858184Y75692D01*
X9861994Y935989D02*
G01*
X9861994Y80010D01*
X9866058Y931671D02*
G01*
X9866058Y84073D01*
X9870122Y927354D02*
G01*
X9870122Y88645D01*
X9874186Y922781D02*
G01*
X9874186Y93218D01*
X9877996Y918210D02*
G01*
X9877996Y97789D01*
X9882060Y913637D02*
G01*
X9882060Y102362D01*
X9886124Y908812D02*
G01*
X9886124Y107187D01*
X9890188Y903986D02*
G01*
X9890188Y112013D01*
X9893998Y898905D02*
G01*
X9893998Y117094D01*
X9898062Y893826D02*
G01*
X9898062Y122173D01*
X9902126Y888745D02*
G01*
X9902126Y127254D01*
X9906190Y883412D02*
G01*
X9906190Y132587D01*
X9910000Y878078D02*
G01*
X9910000Y137921D01*
X9914064Y872489D02*
G01*
X9914064Y143510D01*
X9918128Y866902D02*
G01*
X9918128Y149097D01*
X9922192Y861060D02*
G01*
X9922192Y154939D01*
X9926002Y854963D02*
G01*
X9926002Y161036D01*
X9930066Y848868D02*
G01*
X9930066Y167131D01*
X9934130Y842771D02*
G01*
X9934130Y173228D01*
X9938194Y836168D02*
G01*
X9938194Y179831D01*
X9942004Y829818D02*
G01*
X9942004Y186181D01*
X9946068Y822960D02*
G01*
X9946068Y193039D01*
X9950132Y815847D02*
G01*
X9950132Y200152D01*
X9954196Y808736D02*
G01*
X9954196Y207263D01*
X9958006Y801370D02*
G01*
X9958006Y214629D01*
X9962070Y793495D02*
G01*
X9962070Y222504D01*
X9966134Y785621D02*
G01*
X9966134Y230378D01*
X9970198Y777494D02*
G01*
X9970198Y238505D01*
X9974008Y769112D02*
G01*
X9974008Y246887D01*
X9978072Y760221D02*
G01*
X9978072Y255778D01*
X9982136Y750823D02*
G01*
X9982136Y265176D01*
X9986200Y741171D02*
G01*
X9986200Y274828D01*
X9990010Y731012D02*
G01*
X9990010Y284987D01*
X9994074Y720089D02*
G01*
X9994074Y295910D01*
X9998138Y708913D02*
G01*
X9998138Y307086D01*
X10002202Y696721D02*
G01*
X10002202Y319278D01*
X10006012Y683768D02*
G01*
X10006012Y332231D01*
X10010076Y669544D02*
G01*
X10010076Y346455D01*
X10014140Y654050D02*
G01*
X10014140Y361950D01*
X10018204Y636523D02*
G01*
X10018204Y379476D01*
X10022014Y616204D02*
G01*
X10022014Y399795D01*
X10026078Y591057D02*
G01*
X10026078Y424942D01*
X10030142Y554481D02*
G01*
X10030142Y461518D01*
X8827960Y508000D02*
G01*
X9008046Y508000D01*
X8917876Y597915D02*
G01*
X8917876Y418084D01*
D12*
X3606800Y4940300D02*
G01*
X3606800Y4914900D01*
X3606800Y5448300D02*
G01*
X3606800Y5473700D01*
X3606800Y4940300D02*
G01*
X3530600Y4940300D01*
X3683000Y4940300D02*
G01*
X3606800Y4940300D01*
X3683000Y5448300D02*
G01*
X3683000Y4940300D01*
X3606800Y5448300D02*
G01*
X3683000Y5448300D01*
X3530600Y5448300D02*
G01*
X3606800Y5448300D01*
X3530600Y4940300D02*
G01*
X3530600Y5448300D01*
X10468000Y3034375D02*
G01*
X9639454Y3034375D01*
X10468000Y2134374D02*
G01*
X9037949Y2134374D01*
X10468000Y3034375D02*
G01*
X10468000Y2134374D01*
X10107950Y3034372D02*
G01*
X10107950Y2134374D01*
X10099949Y2904375D02*
G01*
X9037949Y2904375D01*
X10099949Y2264397D02*
G01*
X9037949Y2264397D01*
X9037949Y2134374D02*
G01*
X9037949Y2341935D01*
X9037949Y2826837D02*
G01*
X9037949Y3034375D01*
X9136519Y3034375D02*
G01*
X9037949Y3034375D01*
X1694510Y1511300D02*
G01*
X1694510Y3611295D01*
X6794500Y3611295D02*
G01*
X1694510Y3611295D01*
X6794500Y1511300D02*
G01*
X6794500Y3611295D01*
X6794500Y1511300D02*
G01*
X1694510Y1511300D01*
X1564512Y2161311D02*
G01*
X1564512Y2961309D01*
X2164511Y2961309D01*
X2164511Y2161311D01*
X1564512Y2161311D01*
X3444458Y-1765300D02*
G01*
X3444458Y-1790700D01*
X3444458Y-1257300D02*
G01*
X3444458Y-1231900D01*
X3444458Y-1765300D02*
G01*
X3368258Y-1765300D01*
X3520658Y-1765300D02*
G01*
X3444458Y-1765300D01*
X3520658Y-1257300D02*
G01*
X3520658Y-1765300D01*
X3444458Y-1257300D02*
G01*
X3520658Y-1257300D01*
X3368258Y-1257300D02*
G01*
X3444458Y-1257300D01*
X3368258Y-1765300D02*
G01*
X3368258Y-1257300D01*
X5445541Y-1765300D02*
G01*
X5445541Y-1790700D01*
X5445541Y-1257300D02*
G01*
X5445541Y-1231900D01*
X5445541Y-1765300D02*
G01*
X5369341Y-1765300D01*
X5521741Y-1765300D02*
G01*
X5445541Y-1765300D01*
X5521741Y-1257300D02*
G01*
X5521741Y-1765300D01*
X5445541Y-1257300D02*
G01*
X5521741Y-1257300D01*
X5369341Y-1257300D02*
G01*
X5445541Y-1257300D01*
X5369341Y-1765300D02*
G01*
X5369341Y-1257300D01*
X7442200Y-1765300D02*
G01*
X7442200Y-1790700D01*
X7442200Y-1257300D02*
G01*
X7442200Y-1231900D01*
X7442200Y-1765300D02*
G01*
X7366000Y-1765300D01*
X7518400Y-1765300D02*
G01*
X7442200Y-1765300D01*
X7518400Y-1257300D02*
G01*
X7518400Y-1765300D01*
X7442200Y-1257300D02*
G01*
X7518400Y-1257300D01*
X7366000Y-1257300D02*
G01*
X7442200Y-1257300D01*
X7366000Y-1765300D02*
G01*
X7366000Y-1257300D01*
D14*
G75*
G01*
X8808593Y6705600D02*
G03*
X8808618Y6706032I10001J-372D01*
D12*
G75*
G01*
X3632200Y127000D02*
G03*
X3632200Y304800I0J88900D01*
G75*
G01*
X6454196Y6985010D02*
G02*
X6454196Y6731010I0J-127000D01*
D14*
G75*
G01*
X8635492Y5134000D02*
G03*
X8635060Y5134000I-216J10006D01*
D13*
G75*
G01*
X10031999Y508000D02*
G03*
X10031997Y506451I-633999J265D01*
D15*
G75*
G01
X6434201Y6452997D02*
G03X6434201Y6452997I-19990J0D01*
D12*
G75*
G01
X8440420Y6197600D02*
G03X8440420Y6197600I-248920J0D01*
G75*
G01
X5133335Y5194300D02*
G03X5133335Y5194300I-248920J0D01*
G75*
G01
X3931920Y4165600D02*
G03X3931920Y4165600I-248920J0D01*
M02*
