G04 Layer: TopSolderMaskLayer*
G04 EasyEDA v6.5.54, 2026-05-25 00:17:57*
G04 b051ea1310424490b2c4ebbd247ce2cd,b766e8da3493419aadfb1676c7378051,10*
G04 Gerber Generator version 0.2*
G04 Scale: 100 percent, Rotated: No, Reflected: No *
G04 Dimensions in millimeters *
G04 leading zeros omitted , absolute positions ,4 integer and 5 decimal *
%FSLAX45Y45*%
%MOMM*%

%AMMACRO1*4,1,8,-0.996,-1.0258,-1.0258,-0.996,-1.0258,0.996,-0.996,1.0258,0.996,1.0258,1.0258,0.996,1.0258,-0.996,0.996,-1.0258,-0.996,-1.0258,0*%
%AMMACRO2*4,1,8,-0.7711,-1.0508,-0.8008,-1.021,-0.8008,1.0211,-0.7711,1.0508,0.771,1.0508,0.8008,1.0211,0.8008,-1.021,0.771,-1.0508,-0.7711,-1.0508,0*%
%AMMACRO3*4,1,8,-0.8212,-0.8509,-0.8509,-0.8211,-0.8509,0.8212,-0.8212,0.8509,0.8211,0.8509,0.8509,0.8212,0.8509,-0.8211,0.8211,-0.8509,-0.8212,-0.8509,0*%
%AMMACRO4*4,1,8,-0.7751,-0.8048,-0.8048,-0.775,-0.8048,0.7751,-0.7751,0.8048,0.775,0.8048,0.8048,0.7751,0.8048,-0.775,0.775,-0.8048,-0.7751,-0.8048,0*%
%AMMACRO5*4,1,8,-0.8466,-0.8763,-0.8763,-0.8465,-0.8763,0.8466,-0.8466,0.8763,0.8465,0.8763,0.8763,0.8466,0.8763,-0.8465,0.8465,-0.8763,-0.8466,-0.8763,0*%
%AMMACRO6*4,1,8,-1.2421,-1.3016,-1.3016,-1.2421,-1.3016,1.2421,-1.2421,1.3016,1.2421,1.3016,1.3016,1.2421,1.3016,-1.2421,1.2421,-1.3016,-1.2421,-1.3016,0*%
%AMMACRO7*4,1,8,-1.1421,-1.2016,-1.2016,-1.1421,-1.2016,1.1421,-1.1421,1.2016,1.1421,1.2016,1.2016,1.1421,1.2016,-1.1421,1.1421,-1.2016,-1.1421,-1.2016,0*%
%AMMACRO8*4,1,8,-0.8211,-0.8508,-0.8508,-0.821,-0.8508,0.8211,-0.8211,0.8508,0.821,0.8508,0.8508,0.8211,0.8508,-0.821,0.821,-0.8508,-0.8211,-0.8508,0*%
%ADD10MACRO1*%
%ADD11C,2.0516*%
%ADD12MACRO2*%
%ADD13O,1.601597X2.101596*%
%ADD14C,1.7018*%
%ADD15MACRO3*%
%ADD16MACRO4*%
%ADD17C,0.0128*%
%ADD18C,1.6096*%
%ADD19O,5.50164X2.80162*%
%ADD20MACRO5*%
%ADD21C,1.7526*%
%ADD22C,1.9812*%
%ADD23MACRO6*%
%ADD24C,2.6032*%
%ADD25MACRO7*%
%ADD26C,2.4032*%
%ADD27C,1.7016*%
%ADD28MACRO8*%

%LPD*%
D10*
G01*
X9753600Y6705600D03*
D11*
G01*
X9253600Y6205601D03*
G01*
X9253600Y7205598D03*
D12*
G01*
X3822700Y-165100D03*
D13*
G01*
X4076700Y-165100D03*
G01*
X4330700Y-165100D03*
G01*
X4584700Y-165100D03*
G01*
X4838700Y-165100D03*
G01*
X5092700Y-165100D03*
G01*
X5346700Y-165100D03*
G01*
X3822700Y596900D03*
G01*
X4076700Y596900D03*
G01*
X4330700Y596900D03*
G01*
X4584700Y596900D03*
G01*
X4838700Y596900D03*
G01*
X5092700Y596900D03*
G01*
X5346700Y596900D03*
D14*
G01*
X6553200Y7239000D03*
G01*
X6807200Y7239000D03*
G01*
X7061200Y7239000D03*
G01*
X7315200Y7239000D03*
G01*
X7315200Y6477000D03*
G01*
X7061200Y6477000D03*
G01*
X6807200Y6477000D03*
D15*
G01*
X6553197Y6477010D03*
D16*
G01*
X8786901Y5152186D03*
D18*
G01*
X8786901Y4902200D03*
G01*
X8786901Y4652213D03*
D19*
G01*
X9486900Y5342204D03*
G01*
X9486900Y4462195D03*
D20*
G01*
X8318500Y6197600D03*
D21*
G01*
X8064500Y6197600D03*
D20*
G01*
X5011414Y5194302D03*
D21*
G01*
X4757414Y5194302D03*
D20*
G01*
X3810000Y4165600D03*
D21*
G01*
X3556000Y4165600D03*
D22*
G01*
X1447794Y-1892300D03*
G01*
X1447794Y-1130300D03*
G01*
X4170679Y4813300D03*
G01*
X4170679Y5575300D03*
G01*
X2479042Y4813300D03*
G01*
X2479042Y5575300D03*
G01*
X3042922Y5575300D03*
G01*
X3042922Y4813300D03*
G01*
X5598162Y5575305D03*
G01*
X5598162Y4813305D03*
G01*
X6162042Y4813300D03*
G01*
X6162042Y5575300D03*
D23*
G01*
X9148000Y508000D03*
D24*
G01*
X9647999Y508000D03*
D22*
G01*
X3606800Y4813300D03*
G01*
X3606800Y5575300D03*
D25*
G01*
X9098000Y2584386D03*
D26*
G01*
X9697994Y2584386D03*
G01*
X9397994Y3054413D03*
D27*
G01*
X6657492Y1672310D03*
G01*
X6403492Y1672310D03*
D28*
G01*
X6149502Y1672300D03*
D27*
G01*
X5895492Y1672310D03*
G01*
X5641492Y1672310D03*
G01*
X5387492Y1672310D03*
G01*
X5133492Y1672310D03*
D28*
G01*
X4879505Y1672300D03*
D27*
G01*
X4625517Y1672310D03*
G01*
X4371517Y1672310D03*
G01*
X1831517Y1672310D03*
G01*
X2085517Y1672310D03*
D28*
G01*
X2339510Y1672300D03*
D27*
G01*
X2593517Y1672310D03*
G01*
X2847517Y1672310D03*
G01*
X3101517Y1672310D03*
G01*
X3355517Y1672310D03*
D28*
G01*
X3609507Y1672300D03*
D27*
G01*
X3863517Y1672310D03*
G01*
X4117517Y1672310D03*
G01*
X4117517Y3450285D03*
G01*
X3863517Y3450285D03*
D28*
G01*
X3609507Y3450295D03*
D27*
G01*
X3355517Y3450285D03*
G01*
X3101517Y3450285D03*
G01*
X2847517Y3450285D03*
G01*
X2593517Y3450285D03*
D28*
G01*
X2339510Y3450295D03*
D27*
G01*
X2085517Y3450285D03*
G01*
X1831517Y3450285D03*
G01*
X4371517Y3450285D03*
G01*
X4625517Y3450285D03*
D28*
G01*
X4879505Y3450295D03*
D27*
G01*
X5133492Y3450285D03*
G01*
X5387492Y3450285D03*
G01*
X5641492Y3450285D03*
G01*
X5895492Y3450285D03*
D28*
G01*
X6149502Y3450295D03*
D27*
G01*
X6403492Y3450285D03*
G01*
X6657492Y3450285D03*
D22*
G01*
X3444458Y-1892300D03*
G01*
X3444458Y-1130300D03*
G01*
X5445541Y-1892300D03*
G01*
X5445541Y-1130300D03*
G01*
X7442200Y-1892300D03*
G01*
X7442200Y-1130300D03*
D27*
G01*
X1447797Y-2813050D03*
G01*
X7454272Y-2813050D03*
G01*
X3444453Y-2813050D03*
G01*
X9207500Y-2857500D03*
G01*
X9766305Y-2873781D03*
G01*
X5445546Y-2813050D03*
M02*
